<mxfile host="Electron" agent="Mozilla/5.0 (Windows NT 10.0; Win64; x64) AppleWebKit/537.36 (KHTML, like Gecko) draw.io/25.0.2 Chrome/128.0.6613.186 Electron/32.2.5 Safari/537.36" version="25.0.2">
  <diagram id="R2lEEEUBdFMjLlhIrx00" name="Page-1">
    <mxGraphModel dx="1285" dy="1968" grid="1" gridSize="10" guides="1" tooltips="1" connect="1" arrows="1" fold="1" page="1" pageScale="1" pageWidth="850" pageHeight="1100" math="0" shadow="0" extFonts="Permanent Marker^https://fonts.googleapis.com/css?family=Permanent+Marker">
      <root>
        <mxCell id="0" />
        <mxCell id="1" parent="0" />
        <mxCell id="WAyX71EJ3YmyVyt54ZiH-1" value="Empleado" style="whiteSpace=wrap;html=1;align=center;" vertex="1" parent="1">
          <mxGeometry x="40" y="-920" width="100" height="40" as="geometry" />
        </mxCell>
        <mxCell id="WAyX71EJ3YmyVyt54ZiH-11" value="1. Entidades" style="text;html=1;align=left;verticalAlign=middle;resizable=0;points=[];autosize=1;strokeColor=none;fillColor=none;strokeWidth=0;fontSize=20;fontStyle=1" vertex="1" parent="1">
          <mxGeometry x="40" y="-1080" width="130" height="40" as="geometry" />
        </mxCell>
        <mxCell id="WAyX71EJ3YmyVyt54ZiH-14" value="Cada entidad, corresponde a una tabla de nuestra base de datos." style="text;html=1;align=left;verticalAlign=middle;resizable=0;points=[];autosize=1;strokeColor=none;fillColor=none;" vertex="1" parent="1">
          <mxGeometry x="40" y="-1030" width="370" height="30" as="geometry" />
        </mxCell>
        <mxCell id="WAyX71EJ3YmyVyt54ZiH-76" value="Empleado" style="shape=table;startSize=30;container=1;collapsible=0;childLayout=tableLayout;fontStyle=1" vertex="1" parent="1">
          <mxGeometry x="40" y="-640" width="760" height="110" as="geometry" />
        </mxCell>
        <mxCell id="WAyX71EJ3YmyVyt54ZiH-77" value="" style="shape=tableRow;horizontal=0;startSize=0;swimlaneHead=0;swimlaneBody=0;strokeColor=inherit;top=0;left=0;bottom=0;right=0;collapsible=0;dropTarget=0;fillColor=none;points=[[0,0.5],[1,0.5]];portConstraint=eastwest;" vertex="1" parent="WAyX71EJ3YmyVyt54ZiH-76">
          <mxGeometry y="30" width="760" height="40" as="geometry" />
        </mxCell>
        <mxCell id="WAyX71EJ3YmyVyt54ZiH-78" value="Nombre" style="shape=partialRectangle;html=1;whiteSpace=wrap;connectable=0;strokeColor=inherit;overflow=hidden;fillColor=none;top=0;left=0;bottom=0;right=0;pointerEvents=1;fontStyle=1" vertex="1" parent="WAyX71EJ3YmyVyt54ZiH-77">
          <mxGeometry width="130" height="40" as="geometry">
            <mxRectangle width="130" height="40" as="alternateBounds" />
          </mxGeometry>
        </mxCell>
        <mxCell id="WAyX71EJ3YmyVyt54ZiH-79" value="Descripci칩n" style="shape=partialRectangle;html=1;whiteSpace=wrap;connectable=0;strokeColor=inherit;overflow=hidden;fillColor=none;top=0;left=0;bottom=0;right=0;pointerEvents=1;fontStyle=1" vertex="1" parent="WAyX71EJ3YmyVyt54ZiH-77">
          <mxGeometry x="130" width="240" height="40" as="geometry">
            <mxRectangle width="240" height="40" as="alternateBounds" />
          </mxGeometry>
        </mxCell>
        <mxCell id="WAyX71EJ3YmyVyt54ZiH-80" value="Tipo" style="shape=partialRectangle;html=1;whiteSpace=wrap;connectable=0;strokeColor=inherit;overflow=hidden;fillColor=none;top=0;left=0;bottom=0;right=0;pointerEvents=1;fontStyle=1" vertex="1" parent="WAyX71EJ3YmyVyt54ZiH-77">
          <mxGeometry x="370" width="110" height="40" as="geometry">
            <mxRectangle width="110" height="40" as="alternateBounds" />
          </mxGeometry>
        </mxCell>
        <mxCell id="WAyX71EJ3YmyVyt54ZiH-81" value="Restricciones" style="shape=partialRectangle;html=1;whiteSpace=wrap;connectable=0;strokeColor=inherit;overflow=hidden;fillColor=none;top=0;left=0;bottom=0;right=0;pointerEvents=1;fontStyle=1" vertex="1" parent="WAyX71EJ3YmyVyt54ZiH-77">
          <mxGeometry x="480" width="280" height="40" as="geometry">
            <mxRectangle width="280" height="40" as="alternateBounds" />
          </mxGeometry>
        </mxCell>
        <mxCell id="WAyX71EJ3YmyVyt54ZiH-82" value="" style="shape=tableRow;horizontal=0;startSize=0;swimlaneHead=0;swimlaneBody=0;strokeColor=inherit;top=0;left=0;bottom=0;right=0;collapsible=0;dropTarget=0;fillColor=none;points=[[0,0.5],[1,0.5]];portConstraint=eastwest;" vertex="1" parent="WAyX71EJ3YmyVyt54ZiH-76">
          <mxGeometry y="70" width="760" height="40" as="geometry" />
        </mxCell>
        <mxCell id="WAyX71EJ3YmyVyt54ZiH-83" value="" style="shape=partialRectangle;html=1;whiteSpace=wrap;connectable=0;strokeColor=inherit;overflow=hidden;fillColor=none;top=0;left=0;bottom=0;right=0;pointerEvents=1;" vertex="1" parent="WAyX71EJ3YmyVyt54ZiH-82">
          <mxGeometry width="130" height="40" as="geometry">
            <mxRectangle width="130" height="40" as="alternateBounds" />
          </mxGeometry>
        </mxCell>
        <mxCell id="WAyX71EJ3YmyVyt54ZiH-84" value="" style="shape=partialRectangle;html=1;whiteSpace=wrap;connectable=0;strokeColor=inherit;overflow=hidden;fillColor=none;top=0;left=0;bottom=0;right=0;pointerEvents=1;" vertex="1" parent="WAyX71EJ3YmyVyt54ZiH-82">
          <mxGeometry x="130" width="240" height="40" as="geometry">
            <mxRectangle width="240" height="40" as="alternateBounds" />
          </mxGeometry>
        </mxCell>
        <mxCell id="WAyX71EJ3YmyVyt54ZiH-85" value="" style="shape=partialRectangle;html=1;whiteSpace=wrap;connectable=0;strokeColor=inherit;overflow=hidden;fillColor=none;top=0;left=0;bottom=0;right=0;pointerEvents=1;" vertex="1" parent="WAyX71EJ3YmyVyt54ZiH-82">
          <mxGeometry x="370" width="110" height="40" as="geometry">
            <mxRectangle width="110" height="40" as="alternateBounds" />
          </mxGeometry>
        </mxCell>
        <mxCell id="WAyX71EJ3YmyVyt54ZiH-86" value="" style="shape=partialRectangle;html=1;whiteSpace=wrap;connectable=0;strokeColor=inherit;overflow=hidden;fillColor=none;top=0;left=0;bottom=0;right=0;pointerEvents=1;" vertex="1" parent="WAyX71EJ3YmyVyt54ZiH-82">
          <mxGeometry x="480" width="280" height="40" as="geometry">
            <mxRectangle width="280" height="40" as="alternateBounds" />
          </mxGeometry>
        </mxCell>
        <mxCell id="WAyX71EJ3YmyVyt54ZiH-128" value="Por ejemplo, si tenemos este dise침o MER" style="text;html=1;align=left;verticalAlign=middle;resizable=0;points=[];autosize=1;strokeColor=none;fillColor=none;" vertex="1" parent="1">
          <mxGeometry x="40" y="-990" width="250" height="30" as="geometry" />
        </mxCell>
        <mxCell id="WAyX71EJ3YmyVyt54ZiH-129" value="Empleado ()" style="text;html=1;align=left;verticalAlign=middle;resizable=0;points=[];autosize=1;strokeColor=none;fillColor=none;" vertex="1" parent="1">
          <mxGeometry x="40" y="-790" width="90" height="30" as="geometry" />
        </mxCell>
        <mxCell id="WAyX71EJ3YmyVyt54ZiH-184" value="En el formato gr치fico, cada entidad se pone en cada linea con todos los atributos entre parentesis." style="text;html=1;align=left;verticalAlign=middle;resizable=0;points=[];autosize=1;strokeColor=none;fillColor=none;" vertex="1" parent="1">
          <mxGeometry x="40" y="-830" width="550" height="30" as="geometry" />
        </mxCell>
        <mxCell id="WAyX71EJ3YmyVyt54ZiH-186" value="En el formato de tabla, cada entidad en una tabla con una serie de columnas donde colocaremos la informaci칩n de los atributos." style="text;html=1;align=left;verticalAlign=middle;resizable=0;points=[];autosize=1;strokeColor=none;fillColor=none;" vertex="1" parent="1">
          <mxGeometry x="40" y="-710" width="710" height="30" as="geometry" />
        </mxCell>
      </root>
    </mxGraphModel>
  </diagram>
</mxfile>
